# AST/ASF file generated using VICON BodyLanguage
# -----------------------------------------------
:version 1.10
:name VICON
:units
  mass 1.0
  length 0.45
  angle deg
:documentation
   .ast/.asf automatically generated from VICON data using
   VICON BodyBuilder and BodyLanguage model FoxedUp or BRILLIANT.MOD
:root
   order TX TY TZ RX RY RZ
   axis XYZ
   position 0 0 0  
   orientation 0 0 0 
:bonedata
  begin
     id 1 
     name lhipjoint
     direction 0.561001 -0.76473 0.316963 
     length 2.4722 
     axis 0 0 0  XYZ
  end
  begin
     id 2 
     name lfemur
     direction 0.34202 -0.939693 0  
     length 7.59403  
     axis 0 0 20  XYZ
    dof rx ry rz
    limits (-160.0 20.0)
           (-70.0 70.0)
           (-60.0 70.0)
  end
  begin
     id 3 
     name ltibia
     direction 0.34202 -0.939693 0   
     length 7.89655   
     axis 0 0 20   XYZ
    dof rx
    limits (-10.0 170.0)
  end
  begin
     id 4 
     name lfoot
     direction 0.061296 -0.168409 0.98381   
     length 2.73287   
     axis -90 7.62852e-016 20   XYZ
    dof rx rz
    limits (-45.0 90.0)
           (-70.0 20.0)
  end
  begin
     id 5 
     name ltoes
     direction 1.53547e-011 -4.21984e-011 1   
     length 1.37057   
     axis -90 7.62852e-016 20   XYZ
    dof rx
    limits (-90.0 20.0)
  end
  begin
     id 6 
     name rhipjoint
     direction -0.559611 -0.765599 0.317323   
     length 2.46939  
     axis 0 0 0  XYZ 
  end
  begin
     id 7 
     name rfemur
     direction -0.34202 -0.939693 0   
     length 7.53712   
     axis 0 0 -20   XYZ
    dof rx ry rz
    limits (-160.0 20.0)
           (-70.0 70.0)
           (-70.0 60.0)
  end
  begin
     id 8 
     name rtibia
     direction -0.34202 -0.939693 0   
     length 8.12549   
     axis 0 0 -20   XYZ
    dof rx
    limits (-10.0 170.0)
 end
 begin
     id 9 
     name rfoot
     direction -0.066984 -0.184037 0.980634   
     length 2.67541  
     axis -90 -7.62852e-016 -20   XYZ
    dof rx rz
    limits (-45.0 90.0)
           (-20.0 70.0)
  end
  begin
     id 10 
     name rtoes
     direction -1.53549e-011 -4.21786e-011 1   
     length 1.34085   
     axis -90 -7.62852e-016 -20   XYZ
    dof rx
    limits (-90.0 20.0)
  end
  begin
     id 11 
     name lowerback
     direction -0.0522728 0.992594 -0.109658   
     length 2.05633   
     axis 0 0 0   XYZ
    dof rx ry rz
    limits (-20.0 45.0)
           (-30.0 30.0)
           (-30.0 30.0)
  end
  begin
     id 12 
     name upperback
     direction 0.00589338 0.999977 0.00335704   
     length 2.05845   
     axis 0 0 0   XYZ
    dof rx ry rz
    limits (-20.0 45.0)
           (-30.0 30.0)
           (-30.0 30.0)
  end
  begin
     id 13 
     name thorax
     direction 0.0292928 0.998059 0.0549487   
     length 2.09281   
     axis 0 0 0   XYZ
    dof rx ry rz
    limits (-20.0 45.0)
           (-30.0 30.0)
           (-30.0 30.0)
  end
  begin
     id 14 
     name lowerneck
     direction 0.0356368 0.980775 0.191858   
     length 1.84767   
     axis 0 0 0   XYZ
    dof rx ry rz
    limits (-20.0 45.0)
           (-30.0 30.0)
           (-30.0 30.0)
  end
  begin
     id 15 
     name upperneck
     direction -0.0227605 0.98931 -0.14404   
     length 1.89582   
     axis 0 0 0   XYZ
    dof rx ry rz
    limits (-20.0 45.0)
           (-30.0 30.0)
           (-30.0 30.0)
  end
  begin
     id 16
     name head
     direction -0.00932985 0.997511 -0.0698904  
     length 1.90213  
     axis 0 0 0   XYZ
    dof rx ry rz
    limits (-20.0 45.0)
           (-30.0 30.0)
           (-30.0 30.0)
  end
  begin
     id 17 
     name lclavicle
     direction 0.873442 0.479511 0.0846686  
     length 3.41193  
     axis 0 0 0   XYZ
    dof ry rz
    limits (-20.0 10.0)
           (0.0 20.0)
  end
  begin
     id 18 
     name lhumerus
     direction 1 -4.4897e-011 -5.62117e-018   
     length 5.59864   
     axis 180 -30 -90   XYZ
    dof rx ry rz
    limits (-60.0 90.0)
           (-90.0 90.0)
           (-90.0 90.0)
  end
  begin
     id 19
     name lradius
     direction 1 -4.48966e-011 -6.26295e-027   
     length 3.59542   
     axis 180 -30 -90   XYZ
    dof rx
    limits (-10.0 170.0)
  end
  begin
     id 20
     name lwrist
     direction 1 -4.48947e-011 -1.74096e-026   
     length 1.79771   
     axis 1.04567e-014 90 90   XYZ
    dof ry
    limits (-180.0 0.0)
 end
  begin
     id 21 
     name lhand
     direction 1 -4.49085e-011 -3.48469e-026   
     length 0.572014   
     axis 2.22196e-014 90 90   XYZ
    dof rx rz
    limits (-90.0 90.0)
           (-45.0 45.0)
  end
  begin
     id 22 
     name lfingers
     direction 1 -4.48884e-011 -6.96135e-026   
     length 0.461173   
     axis 4.44383e-014 90 90   XYZ
    dof rx
    limits (0.0 90.0)
  end
  begin
     id 23
     name lthumb
     direction 0.707107 -6.34976e-011 0.707107   
     length 0.662154   
     axis -90 45 -5.4397e-014   XYZ
    dof rx rz
    limits (-45.0 45.0)
           (-45.0 45.0)
  end
  begin
     id 24 
     name rclavicle
     direction -0.890242 0.443271 0.104786   
     length 3.46753  
     axis 0 0 0   XYZ 
    dof ry rz
    limits (-10.0 20.0)
           (-20.0 0.0)
  end
  begin
     id 25 
     name rhumerus
     direction -1 -4.48963e-011 -5.41723e-018  
     length 5.8094   
     axis 180 30 90   XYZ
    dof rx ry rz
    limits (-90.0 60.0)
           (-90.0 90.0)
           (-90.0 90.0)
  end
  begin
     id 26 
     name rradius
     direction -1 -4.48958e-011 -6.51059e-027   
     length 3.66953   
     axis 180 30 90   XYZ
    dof rx
    limits (-10.0 170.0)
  end
  begin
     id 27 
     name rwrist
     direction -1 -4.48975e-011 -1.74124e-026   
     length 1.83476   
     axis 1.04567e-014 -90 -90   XYZ
    dof ry
    limits (-180.0 0.0)
  end
  begin
     id 28
     name rhand
     direction -1 -4.49013e-011 -3.48326e-026   
     length 0.57843   
     axis 2.22196e-014 -90 -90   XYZ
    dof rx rz
    limits (-90.0 90.0)
           (-45.0 45.0)
  end
  begin
     id 29
     name rfingers
     direction -1 -4.49023e-011 -6.9669e-026   
     length 0.466345   
     axis 4.44383e-014 -90 -90   XYZ
    dof rx
    limits (0.0 90.0)
  end
  begin
     id 30
     name rthumb
     direction -0.707107 -6.34926e-011 0.707107   
     length 0.669581   
     axis -90 -45 5.4397e-014   XYZ
    dof rx rz
    limits (-45.0 45.0)
           (-45.0 45.0)
  end
:hierarchy
  begin
    root lhipjoint rhipjoint lowerback
    lhipjoint lfemur
    lfemur ltibia
    ltibia lfoot
    lfoot ltoes
    rhipjoint rfemur
    rfemur rtibia
    rtibia rfoot
    rfoot rtoes
    lowerback upperback
    upperback thorax
    thorax lowerneck lclavicle rclavicle
    lowerneck upperneck
    upperneck head
    lclavicle lhumerus
    lhumerus lradius
    lradius lwrist
    lwrist lhand lthumb
    lhand lfingers
    rclavicle rhumerus
    rhumerus rradius
    rradius rwrist
    rwrist rhand rthumb
    rhand rfingers
  end

#!OML:ASF H:\SkateBoarding\Project 1\Capture day 1\Session 1\Skater.ASF
:FULLY-SPECIFIED
:DEGREES
364
root -0.0573165 15.4283 13.2752 18.1267 16.9544 2.358
lowerback 10.1135 -0.822014 -3.06146
upperback -0.156259 -1.31969 2.22989
thorax -5.72319 -0.526254 4.26762
lowerneck -16.2122 5.60255 8.46329
upperneck 13.4718 9.49028 -20.8251
head 8.4051 3.18527 -7.31958
rclavicle -3.81667e-014 -4.77083e-015
rhumerus -12.8426 0.461661 -79.8198
rradius 26.2105
rwrist -3.00076
rhand -28.1299 -11.2563
rfingers 7.12502
rthumb -1.51139 -41.2307
lclavicle -3.81667e-014 -4.77083e-015
lhumerus -5.7806 -24.3819 73.8426
lradius 91.9027
lwrist 28.5874
lhand -26.9676 11.5357
lfingers 7.12502
lthumb -0.388827 41.5151
rfemur -79.7712 -5.53872 11.755
rtibia 91.6568
rfoot -8.38937 30.5373
rtoes 0.237131
lfemur 29.2224 -17.1884 -12.4473
ltibia -1.27222e-014
lfoot -12.3099 -4.69161
ltoes 17.8093
365
root -0.0992178 15.4895 13.626 18.161 17.4446 2.48106
lowerback 9.81731 -1.02058 -3.02307
upperback -0.383284 -1.57401 2.22961
thorax -5.77242 -0.648237 4.27771
lowerneck -16.411 5.67462 8.41195
upperneck 13.9009 9.6499 -20.6921
head 8.59837 3.23705 -7.25351
rclavicle 1.05356e-014 1.11319e-014
rhumerus -12.6859 0.517434 -79.9326
rradius 26.3099
rwrist -3.50536
rhand -28.1665 -11.5841
rfingers 7.12502
rthumb -1.54671 -41.5582
lclavicle 1.05356e-014 1.11319e-014
lhumerus -4.92332 -23.5553 73.6424
lradius 92.2965
lwrist 27.7463
lhand -27.1046 10.8696
lfingers 7.12502
lthumb -0.521078 40.8487
rfemur -79.1714 -5.94029 11.9549
rtibia 91.1557
rfoot -8.66227 30.5055
rtoes 0.171608
lfemur 29.5706 -17.5842 -12.237
ltibia 2.22639e-014
lfoot -12.4002 -1.90962
ltoes 19.2182
366
root -0.143514 15.5594 13.9785 18.1664 17.9438 2.63012
lowerback 9.56528 -1.20485 -3.03834
upperback -0.584086 -1.81783 2.21104
thorax -5.81892 -0.764242 4.29707
lowerneck -16.6061 5.72819 8.35109
upperneck 14.3056 9.76522 -20.4857
head 8.77049 3.27502 -7.16387
rclavicle 1.70955e-014 2.78299e-014
rhumerus -12.5456 0.643489 -80.0739
rradius 26.462
rwrist -4.14126
rhand -28.24 -11.8427
rfingers 7.12502
rthumb -1.61771 -41.8164
lclavicle 1.70955e-014 2.78299e-014
lhumerus -4.05818 -22.7679 73.5323
lradius 92.6083
lwrist 26.9643
lhand -27.272 10.2384
lfingers 7.12502
lthumb -0.682751 40.2171
rfemur -78.4625 -6.29965 12.124
rtibia 90.5996
rfoot -9.03932 30.4279
rtoes 0.0245361
lfemur 29.9258 -17.9981 -12.0651
ltibia -6.36111e-015
lfoot -12.8139 1.27224
ltoes 20.1292
367
root -0.189963 15.6381 14.3326 18.1392 18.4583 2.79217
lowerback 9.35195 -1.37518 -3.09014
upperback -0.754728 -2.04897 2.17759
thorax -5.85584 -0.873784 4.31927
lowerneck -16.7967 5.76051 8.27718
upperneck 14.6841 9.83281 -20.2096
head 8.91994 3.29764 -7.05178
rclavicle -1.78906e-015 -1.90833e-014
rhumerus -12.4172 0.834419 -80.2362
rradius 26.6621
rwrist -4.88401
rhand -28.3545 -12.0347
rfingers 7.12502
rthumb -1.72829 -42.0074
lclavicle -1.78906e-015 -1.90833e-014
lhumerus -3.1792 -22.0344 73.504
lradius 92.8501
lwrist 26.2619
lhand -27.4656 9.65089
lfingers 7.12502
lthumb -0.869754 39.6289
rfemur -77.6368 -6.61567 12.2746
rtibia 89.9848
rfoot -9.51678 30.3043
rtoes -0.182778
lfemur 30.2957 -18.4312 -11.9207
ltibia -2.54444e-014
lfoot -13.503 4.80277
ltoes 20.3971
368
root -0.238088 15.7261 14.6881 18.0825 18.9924 2.95875
lowerback 9.17146 -1.53125 -3.1583
upperback -0.896363 -2.26447 2.12857
thorax -5.88196 -0.976022 4.33178
lowerneck -16.9824 5.77002 8.19378
upperneck 15.0398 9.85128 -19.8714
head 9.04835 3.30405 -6.9213
rclavicle 4.53229e-014 2.06736e-014
rhumerus -12.2984 1.06884 -80.4147
rradius 26.9004
rwrist -5.7023
rhand -28.5224 -12.1556
rfingers 7.12502
rthumb -1.89046 -42.127
lclavicle 4.53229e-014 2.06736e-014
lhumerus -2.27857 -21.3737 73.557
lradius 93.0216
lwrist 25.6498
lhand -27.7016 9.10558
lfingers 7.12502
lthumb -1.09775 39.0825
rfemur -76.6951 -6.89258 12.4165
rtibia 89.3087
rfoot -10.0894 30.1328
rtoes -0.446003
lfemur 30.6716 -18.8835 -11.7958
ltibia 9.85972e-014
lfoot -14.3151 8.66741
ltoes 19.9701
